<?xml version="1.0" encoding="utf-8"?>
<!-- Generator: Adobe Illustrator 24.2.0, SVG Export Plug-In . SVG Version: 6.00 Build 0)  -->
<svg version="1.1" id="tonado" xmlns="http://www.w3.org/2000/svg" xmlns:xlink="http://www.w3.org/1999/xlink" x="0px" y="0px"
	 viewBox="0 0 62 64" style="enable-background:new 0 0 62 64;" xml:space="preserve">
<style type="text/css">
	.st0{fill:#F1F2F2;}
	.st1{fill:#D9DEDF;}
	.st2{fill:none;stroke:#000000;stroke-width:2;stroke-linejoin:round;stroke-miterlimit:10;}
</style>
<g>
	<g id="XMLID_35_">
		<g>
			<path class="st0" d="M24,49H7.5C5,49,3,47,3,44.5C3,42,5,40,7.5,40H15c-2.8,0-5-2.2-5-5s2.2-5,5-5H6c-2.8,0-5-2.2-5-5s2.2-5,5-5
				h3c-2.8,0-5-2.2-5-5s2.2-5,5-5h44c2.8,0,5,2.2,5,5s-2.2,5-5,5h3c2.8,0,5,2.2,5,5s-2.2,5-5,5h-1c2.8,0,5,2.2,5,5s-2.2,5-5,5h-6.5
				c2.5,0,4.5,2,4.5,4.5c0,2.5-2,4.5-4.5,4.5H48"/>
		</g>
		<g>
			<path class="st1" d="M48,49H24"/>
			<path class="st1" d="M58,15c0-2.8-2.2-5-5-5H9c-2.8,0-5,2.2-5,5s2.2,5,5,5h44C55.8,20,58,17.7,58,15z"/>
			<path class="st1" d="M10,35c0,2.8,2.2,5,5,5h33.5H55c2.8,0,5-2.2,5-5s-2.2-5-5-5H15C12.2,30,10,32.2,10,35z"/>
		</g>
		<g>
			<path class="st2" d="M48,49h0.5c2.5,0,4.5-2,4.5-4.5c0-2.5-2-4.5-4.5-4.5H55c2.8,0,5-2.2,5-5s-2.2-5-5-5h1c2.8,0,5-2.2,5-5
				s-2.2-5-5-5h-3c2.8,0,5-2.2,5-5s-2.2-5-5-5H9c-2.8,0-5,2.2-5,5s2.2,5,5,5H6c-2.8,0-5,2.2-5,5s2.2,5,5,5h9c-2.8,0-5,2.2-5,5
				s2.2,5,5,5H7.5C5,40,3,42,3,44.5C3,47,5,49,7.5,49H24"/>
		</g>
	</g>
	<line class="st2" x1="9" y1="20" x2="41" y2="20"/>
	<line class="st2" x1="55" y1="30" x2="27" y2="30"/>
	<line class="st2" x1="15" y1="40" x2="39" y2="40"/>
	<line class="st2" x1="48" y1="49" x2="32" y2="49"/>
	<line class="st2" x1="28" y1="49" x2="30" y2="49"/>
	<line class="st2" x1="41" y1="40" x2="43" y2="40"/>
	<line class="st2" x1="23" y1="30" x2="25" y2="30"/>
	<line class="st2" x1="43" y1="20" x2="45" y2="20"/>
</g>
</svg>
